<svg xmlns="http://www.w3.org/2000/svg" xmlns:xlink="http://www.w3.org/1999/xlink" width="1200" zoomAndPan="magnify" viewBox="0 0 900 225" height="300" preserveAspectRatio="xMidYMid meet" version="1.0"><defs><g/><clipPath id="d56c85e4fa"><rect x="0" width="840" y="0" height="205"/></clipPath><clipPath id="82f75dcf87"><rect x="0" width="60" y="0" height="121"/></clipPath></defs><g transform="matrix(1, 0, 0, 1, 0, 12)"><g clip-path="url(#d56c85e4fa)"><g fill="#51ce69" fill-opacity="1"><g transform="translate(-4.163601, 162.104479)"><g><path d="M 97.046875 2.8125 C 79.460938 2.8125 63.992188 -0.132812 50.640625 -6.03125 C 37.285156 -11.9375 26.984375 -20.289062 19.734375 -31.09375 C 12.484375 -41.90625 8.859375 -54.425781 8.859375 -68.65625 C 8.859375 -82.882812 12.484375 -95.398438 19.734375 -106.203125 C 26.984375 -117.003906 37.285156 -125.359375 50.640625 -131.265625 C 63.992188 -137.171875 79.460938 -140.125 97.046875 -140.125 C 117.304688 -140.125 134.582031 -136.164062 148.875 -128.25 C 163.175781 -120.332031 172.941406 -108.519531 178.171875 -92.8125 L 128.65625 -83.953125 C 127.039062 -89.316406 123.28125 -93.773438 117.375 -97.328125 C 111.46875 -100.890625 104.421875 -102.671875 96.234375 -102.671875 C 84.015625 -102.671875 74.785156 -99.582031 68.546875 -93.40625 C 62.304688 -87.238281 59.1875 -78.988281 59.1875 -68.65625 C 59.1875 -58.457031 62.304688 -50.234375 68.546875 -43.984375 C 74.785156 -37.742188 84.015625 -34.625 96.234375 -34.625 C 104.421875 -34.625 111.46875 -36.398438 117.375 -39.953125 C 123.28125 -43.515625 127.039062 -47.984375 128.65625 -53.359375 L 178.171875 -44.5 C 172.941406 -28.789062 163.175781 -16.976562 148.875 -9.0625 C 134.582031 -1.144531 117.304688 2.8125 97.046875 2.8125 Z M 97.046875 2.8125 "/></g></g></g><g fill="#51ce69" fill-opacity="1"><g transform="translate(178.441288, 162.104479)"><g><path d="M 14.09375 -137.3125 L 63.421875 -137.3125 L 63.421875 -87.578125 L 126.234375 -87.578125 L 126.234375 -137.3125 L 175.5625 -137.3125 L 175.5625 0 L 126.234375 0 L 126.234375 -51.34375 L 63.421875 -51.34375 L 63.421875 0 L 14.09375 0 Z M 14.09375 -137.3125 "/></g></g></g><g fill="#51ce69" fill-opacity="1"><g transform="translate(368.092685, 162.104479)"><g><path d="M 14.09375 -137.3125 L 142.140625 -137.3125 L 142.140625 -103.078125 L 63.421875 -103.078125 L 63.421875 -86.375 L 128.25 -86.375 L 128.25 -52.140625 L 63.421875 -52.140625 L 63.421875 -34.21875 L 142.140625 -34.21875 L 142.140625 0 L 14.09375 0 Z M 14.09375 -137.3125 "/></g></g></g><g fill="#51ce69" fill-opacity="1"><g transform="translate(517.881029, 162.104479)"><g><path d="M 80.734375 2.8125 C 57.785156 2.8125 39.898438 -0.269531 27.078125 -6.4375 C 14.265625 -12.613281 5.910156 -21.269531 2.015625 -32.40625 L 45.5 -43.484375 C 47.914062 -38.921875 52.546875 -35.332031 59.390625 -32.71875 C 66.234375 -30.101562 74.15625 -28.796875 83.15625 -28.796875 C 92.007812 -28.796875 98.347656 -29.53125 102.171875 -31 C 105.992188 -32.476562 107.90625 -34.628906 107.90625 -37.453125 C 107.90625 -40.398438 106.09375 -42.710938 102.46875 -44.390625 C 98.851562 -46.066406 92.613281 -47.507812 83.75 -48.71875 L 63.828125 -51.34375 C 45.972656 -53.625 32.347656 -58.253906 22.953125 -65.234375 C 13.554688 -72.210938 8.859375 -82.273438 8.859375 -95.421875 C 8.859375 -104.691406 11.878906 -112.679688 17.921875 -119.390625 C 23.960938 -126.097656 32.484375 -131.226562 43.484375 -134.78125 C 54.492188 -138.34375 67.378906 -140.125 82.140625 -140.125 C 94.484375 -140.125 105.585938 -138.78125 115.453125 -136.09375 C 125.328125 -133.414062 133.453125 -129.828125 139.828125 -125.328125 C 146.203125 -120.828125 150.726562 -115.894531 153.40625 -110.53125 L 108.921875 -96.84375 C 105.960938 -100.726562 102.300781 -103.644531 97.9375 -105.59375 C 93.582031 -107.539062 87.78125 -108.515625 80.53125 -108.515625 C 72.613281 -108.515625 66.804688 -107.640625 63.109375 -105.890625 C 59.421875 -104.148438 57.578125 -101.867188 57.578125 -99.046875 C 57.578125 -95.960938 59.019531 -93.710938 61.90625 -92.296875 C 64.789062 -90.890625 69.859375 -89.71875 77.109375 -88.78125 L 106.09375 -84.953125 C 121.800781 -82.941406 134.25 -78.546875 143.4375 -71.765625 C 152.632812 -64.992188 157.234375 -55.566406 157.234375 -43.484375 C 157.234375 -28.722656 150.820312 -17.316406 138 -9.265625 C 125.1875 -1.210938 106.097656 2.8125 80.734375 2.8125 Z M 80.734375 2.8125 "/></g></g></g><g fill="#51ce69" fill-opacity="1"><g transform="translate(678.13846, 162.104479)"><g><path d="M 80.734375 2.8125 C 57.785156 2.8125 39.898438 -0.269531 27.078125 -6.4375 C 14.265625 -12.613281 5.910156 -21.269531 2.015625 -32.40625 L 45.5 -43.484375 C 47.914062 -38.921875 52.546875 -35.332031 59.390625 -32.71875 C 66.234375 -30.101562 74.15625 -28.796875 83.15625 -28.796875 C 92.007812 -28.796875 98.347656 -29.53125 102.171875 -31 C 105.992188 -32.476562 107.90625 -34.628906 107.90625 -37.453125 C 107.90625 -40.398438 106.09375 -42.710938 102.46875 -44.390625 C 98.851562 -46.066406 92.613281 -47.507812 83.75 -48.71875 L 63.828125 -51.34375 C 45.972656 -53.625 32.347656 -58.253906 22.953125 -65.234375 C 13.554688 -72.210938 8.859375 -82.273438 8.859375 -95.421875 C 8.859375 -104.691406 11.878906 -112.679688 17.921875 -119.390625 C 23.960938 -126.097656 32.484375 -131.226562 43.484375 -134.78125 C 54.492188 -138.34375 67.378906 -140.125 82.140625 -140.125 C 94.484375 -140.125 105.585938 -138.78125 115.453125 -136.09375 C 125.328125 -133.414062 133.453125 -129.828125 139.828125 -125.328125 C 146.203125 -120.828125 150.726562 -115.894531 153.40625 -110.53125 L 108.921875 -96.84375 C 105.960938 -100.726562 102.300781 -103.644531 97.9375 -105.59375 C 93.582031 -107.539062 87.78125 -108.515625 80.53125 -108.515625 C 72.613281 -108.515625 66.804688 -107.640625 63.109375 -105.890625 C 59.421875 -104.148438 57.578125 -101.867188 57.578125 -99.046875 C 57.578125 -95.960938 59.019531 -93.710938 61.90625 -92.296875 C 64.789062 -90.890625 69.859375 -89.71875 77.109375 -88.78125 L 106.09375 -84.953125 C 121.800781 -82.941406 134.25 -78.546875 143.4375 -71.765625 C 152.632812 -64.992188 157.234375 -55.566406 157.234375 -43.484375 C 157.234375 -28.722656 150.820312 -17.316406 138 -9.265625 C 125.1875 -1.210938 106.097656 2.8125 80.734375 2.8125 Z M 80.734375 2.8125 "/></g></g></g></g></g><g transform="matrix(1, 0, 0, 1, 836, 75)"><g clip-path="url(#82f75dcf87)"><g fill="#ffffff" fill-opacity="1"><g transform="translate(0.739516, 97.702788)"><g><path d="M 2.53125 0 L 2.53125 -72.1875 L 25.109375 -72.1875 L 25.109375 -61.75 L 13.671875 -61.75 L 13.671875 -42.515625 L 22.78125 -42.515625 L 22.78125 -31.984375 L 13.671875 -31.984375 L 13.671875 0 Z M 2.53125 0 "/></g></g></g><g fill="#ffffff" fill-opacity="1"><g transform="translate(26.756128, 97.702788)"><g><path d="M 16.40625 0.90625 C 11.675781 0.90625 8.113281 -0.335938 5.71875 -2.828125 C 3.320312 -5.328125 2.125 -8.671875 2.125 -12.859375 L 2.125 -59.21875 C 2.125 -63.46875 3.457031 -66.859375 6.125 -69.390625 C 8.789062 -71.921875 12.316406 -73.1875 16.703125 -73.1875 C 20.953125 -73.1875 24.238281 -71.972656 26.5625 -69.546875 C 28.894531 -67.117188 30.0625 -63.847656 30.0625 -59.734375 L 30.0625 -46.5625 L 19.53125 -46.5625 L 19.53125 -58.609375 C 19.53125 -59.753906 19.296875 -60.679688 18.828125 -61.390625 C 18.359375 -62.109375 17.582031 -62.46875 16.5 -62.46875 C 15.28125 -62.46875 14.484375 -62.128906 14.109375 -61.453125 C 13.742188 -60.773438 13.5625 -59.894531 13.5625 -58.8125 L 13.5625 -13.875 C 13.5625 -12.789062 13.8125 -11.859375 14.3125 -11.078125 C 14.820312 -10.304688 15.585938 -9.921875 16.609375 -9.921875 C 17.753906 -9.921875 18.523438 -10.304688 18.921875 -11.078125 C 19.328125 -11.859375 19.53125 -12.789062 19.53125 -13.875 L 19.53125 -25.515625 L 30.0625 -25.515625 L 30.0625 -13.46875 C 30.0625 -9.34375 28.894531 -5.914062 26.5625 -3.1875 C 24.238281 -0.457031 20.851562 0.90625 16.40625 0.90625 Z M 16.40625 0.90625 "/></g></g></g></g></g></svg>