<svg xmlns="http://www.w3.org/2000/svg" xmlns:xlink="http://www.w3.org/1999/xlink" width="2685" zoomAndPan="magnify" viewBox="0 0 2013.75 442.499987" height="590" preserveAspectRatio="xMidYMid meet" version="1.0"><defs><g/><clipPath id="ab8a4680b9"><path d="M 767 58 L 820.703125 58 L 820.703125 168 L 767 168 Z M 767 58 " clip-rule="nonzero"/></clipPath><clipPath id="b0e6675863"><rect x="0" width="54" y="0" height="110"/></clipPath><clipPath id="a8fd068e35"><rect x="0" width="821" y="0" height="186"/></clipPath></defs><g transform="matrix(1, 0, 0, 1, 623, 128)"><g clip-path="url(#a8fd068e35)"><g fill="#51ce69" fill-opacity="1"><g transform="translate(1.092658, 146.85268)"><g><path d="M 88.109375 2.5625 C 72.148438 2.5625 58.101562 -0.117188 45.96875 -5.484375 C 33.84375 -10.847656 24.488281 -18.429688 17.90625 -28.234375 C 11.332031 -38.046875 8.046875 -49.414062 8.046875 -62.34375 C 8.046875 -75.257812 11.332031 -86.625 17.90625 -96.4375 C 24.488281 -106.25 33.84375 -113.832031 45.96875 -119.1875 C 58.101562 -124.550781 72.148438 -127.234375 88.109375 -127.234375 C 106.515625 -127.234375 122.207031 -123.640625 135.1875 -116.453125 C 148.164062 -109.265625 157.03125 -98.539062 161.78125 -84.28125 L 116.8125 -76.234375 C 115.351562 -81.109375 111.941406 -85.160156 106.578125 -88.390625 C 101.210938 -91.617188 94.816406 -93.234375 87.390625 -93.234375 C 76.296875 -93.234375 67.914062 -90.429688 62.25 -84.828125 C 56.582031 -79.222656 53.75 -71.726562 53.75 -62.34375 C 53.75 -53.070312 56.582031 -45.601562 62.25 -39.9375 C 67.914062 -34.269531 76.296875 -31.4375 87.390625 -31.4375 C 94.816406 -31.4375 101.210938 -33.050781 106.578125 -36.28125 C 111.941406 -39.507812 115.351562 -43.5625 116.8125 -48.4375 L 161.78125 -40.40625 C 157.03125 -26.144531 148.164062 -15.414062 135.1875 -8.21875 C 122.207031 -1.03125 106.515625 2.5625 88.109375 2.5625 Z M 88.109375 2.5625 "/></g></g></g><g fill="#51ce69" fill-opacity="1"><g transform="translate(166.905571, 146.85268)"><g><path d="M 12.796875 -124.671875 L 57.578125 -124.671875 L 57.578125 -79.515625 L 114.625 -79.515625 L 114.625 -124.671875 L 159.40625 -124.671875 L 159.40625 0 L 114.625 0 L 114.625 -46.609375 L 57.578125 -46.609375 L 57.578125 0 L 12.796875 0 Z M 12.796875 -124.671875 "/></g></g></g><g fill="#51ce69" fill-opacity="1"><g transform="translate(339.117008, 146.85268)"><g><path d="M 12.796875 -124.671875 L 129.0625 -124.671875 L 129.0625 -93.59375 L 57.578125 -93.59375 L 57.578125 -78.421875 L 116.453125 -78.421875 L 116.453125 -47.34375 L 57.578125 -47.34375 L 57.578125 -31.078125 L 129.0625 -31.078125 L 129.0625 0 L 12.796875 0 Z M 12.796875 -124.671875 "/></g></g></g><g fill="#51ce69" fill-opacity="1"><g transform="translate(475.131118, 146.85268)"><g><path d="M 73.3125 2.5625 C 52.46875 2.5625 36.222656 -0.238281 24.578125 -5.84375 C 12.941406 -11.457031 5.359375 -19.320312 1.828125 -29.4375 L 41.3125 -39.484375 C 43.507812 -35.335938 47.710938 -32.078125 53.921875 -29.703125 C 60.140625 -27.328125 67.332031 -26.140625 75.5 -26.140625 C 83.539062 -26.140625 89.296875 -26.804688 92.765625 -28.140625 C 96.242188 -29.484375 97.984375 -31.4375 97.984375 -34 C 97.984375 -36.6875 96.335938 -38.789062 93.046875 -40.3125 C 89.753906 -41.832031 84.085938 -43.140625 76.046875 -44.234375 L 57.953125 -46.609375 C 41.742188 -48.679688 29.375 -52.882812 20.84375 -59.21875 C 12.3125 -65.5625 8.046875 -74.707031 8.046875 -86.65625 C 8.046875 -95.0625 10.785156 -102.3125 16.265625 -108.40625 C 21.753906 -114.5 29.492188 -119.160156 39.484375 -122.390625 C 49.484375 -125.617188 61.1875 -127.234375 74.59375 -127.234375 C 85.800781 -127.234375 95.882812 -126.015625 104.84375 -123.578125 C 113.800781 -121.140625 121.171875 -117.878906 126.953125 -113.796875 C 132.742188 -109.710938 136.859375 -105.234375 139.296875 -100.359375 L 98.90625 -87.9375 C 96.21875 -91.46875 92.894531 -94.113281 88.9375 -95.875 C 84.976562 -97.644531 79.707031 -98.53125 73.125 -98.53125 C 65.9375 -98.53125 60.664062 -97.738281 57.3125 -96.15625 C 53.957031 -94.570312 52.28125 -92.5 52.28125 -89.9375 C 52.28125 -87.132812 53.585938 -85.09375 56.203125 -83.8125 C 58.828125 -82.539062 63.429688 -81.476562 70.015625 -80.625 L 96.34375 -77.140625 C 110.601562 -75.316406 121.90625 -71.328125 130.25 -65.171875 C 138.601562 -59.015625 142.78125 -50.453125 142.78125 -39.484375 C 142.78125 -26.078125 136.957031 -15.71875 125.3125 -8.40625 C 113.675781 -1.09375 96.34375 2.5625 73.3125 2.5625 Z M 73.3125 2.5625 "/></g></g></g><g fill="#51ce69" fill-opacity="1"><g transform="translate(620.6516, 146.85268)"><g><path d="M 73.3125 2.5625 C 52.46875 2.5625 36.222656 -0.238281 24.578125 -5.84375 C 12.941406 -11.457031 5.359375 -19.320312 1.828125 -29.4375 L 41.3125 -39.484375 C 43.507812 -35.335938 47.710938 -32.078125 53.921875 -29.703125 C 60.140625 -27.328125 67.332031 -26.140625 75.5 -26.140625 C 83.539062 -26.140625 89.296875 -26.804688 92.765625 -28.140625 C 96.242188 -29.484375 97.984375 -31.4375 97.984375 -34 C 97.984375 -36.6875 96.335938 -38.789062 93.046875 -40.3125 C 89.753906 -41.832031 84.085938 -43.140625 76.046875 -44.234375 L 57.953125 -46.609375 C 41.742188 -48.679688 29.375 -52.882812 20.84375 -59.21875 C 12.3125 -65.5625 8.046875 -74.707031 8.046875 -86.65625 C 8.046875 -95.0625 10.785156 -102.3125 16.265625 -108.40625 C 21.753906 -114.5 29.492188 -119.160156 39.484375 -122.390625 C 49.484375 -125.617188 61.1875 -127.234375 74.59375 -127.234375 C 85.800781 -127.234375 95.882812 -126.015625 104.84375 -123.578125 C 113.800781 -121.140625 121.171875 -117.878906 126.953125 -113.796875 C 132.742188 -109.710938 136.859375 -105.234375 139.296875 -100.359375 L 98.90625 -87.9375 C 96.21875 -91.46875 92.894531 -94.113281 88.9375 -95.875 C 84.976562 -97.644531 79.707031 -98.53125 73.125 -98.53125 C 65.9375 -98.53125 60.664062 -97.738281 57.3125 -96.15625 C 53.957031 -94.570312 52.28125 -92.5 52.28125 -89.9375 C 52.28125 -87.132812 53.585938 -85.09375 56.203125 -83.8125 C 58.828125 -82.539062 63.429688 -81.476562 70.015625 -80.625 L 96.34375 -77.140625 C 110.601562 -75.316406 121.90625 -71.328125 130.25 -65.171875 C 138.601562 -59.015625 142.78125 -50.453125 142.78125 -39.484375 C 142.78125 -26.078125 136.957031 -15.71875 125.3125 -8.40625 C 113.675781 -1.09375 96.34375 2.5625 73.3125 2.5625 Z M 73.3125 2.5625 "/></g></g></g><g clip-path="url(#ab8a4680b9)"><g transform="matrix(1, 0, 0, 1, 767, 58)"><g clip-path="url(#b0e6675863)"><g fill="#ffffff" fill-opacity="1"><g transform="translate(0.132769, 88.329027)"><g><path d="M 2.296875 0 L 2.296875 -65.546875 L 22.796875 -65.546875 L 22.796875 -56.078125 L 12.40625 -56.078125 L 12.40625 -38.609375 L 20.6875 -38.609375 L 20.6875 -29.046875 L 12.40625 -29.046875 L 12.40625 0 Z M 2.296875 0 "/></g></g></g><g fill="#ffffff" fill-opacity="1"><g transform="translate(23.756945, 88.329027)"><g><path d="M 14.890625 0.828125 C 10.597656 0.828125 7.363281 -0.300781 5.1875 -2.5625 C 3.019531 -4.832031 1.9375 -7.867188 1.9375 -11.671875 L 1.9375 -53.78125 C 1.9375 -57.632812 3.144531 -60.707031 5.5625 -63 C 7.976562 -65.300781 11.179688 -66.453125 15.171875 -66.453125 C 19.023438 -66.453125 22.007812 -65.347656 24.125 -63.140625 C 26.238281 -60.941406 27.296875 -57.972656 27.296875 -54.234375 L 27.296875 -42.28125 L 17.734375 -42.28125 L 17.734375 -53.21875 C 17.734375 -54.257812 17.519531 -55.101562 17.09375 -55.75 C 16.664062 -56.394531 15.960938 -56.71875 14.984375 -56.71875 C 13.878906 -56.71875 13.15625 -56.410156 12.8125 -55.796875 C 12.476562 -55.179688 12.3125 -54.382812 12.3125 -53.40625 L 12.3125 -12.59375 C 12.3125 -11.613281 12.539062 -10.769531 13 -10.0625 C 13.46875 -9.363281 14.160156 -9.015625 15.078125 -9.015625 C 16.117188 -9.015625 16.820312 -9.363281 17.1875 -10.0625 C 17.550781 -10.769531 17.734375 -11.613281 17.734375 -12.59375 L 17.734375 -23.171875 L 27.296875 -23.171875 L 27.296875 -12.21875 C 27.296875 -8.488281 26.238281 -5.378906 24.125 -2.890625 C 22.007812 -0.410156 18.929688 0.828125 14.890625 0.828125 Z M 14.890625 0.828125 "/></g></g></g></g></g></g></g></g></svg>