<svg xmlns="http://www.w3.org/2000/svg" xmlns:xlink="http://www.w3.org/1999/xlink" width="1307" zoomAndPan="magnify" viewBox="0 0 980.25 215.249992" height="287" preserveAspectRatio="xMidYMid meet" version="1.0"><defs><g/><clipPath id="a571c6aad9"><rect x="0" width="869" y="0" height="91"/></clipPath><clipPath id="0961a0bb28"><rect x="0" width="869" y="0" height="91"/></clipPath></defs><g transform="matrix(1, 0, 0, 1, 55, 62)"><g clip-path="url(#a571c6aad9)"><g fill="#fcfcfc" fill-opacity="1"><g transform="translate(0.421657, 70.649198)"><g><path d="M 6.203125 -60.5 L 62.109375 -60.5 L 62.109375 -45.421875 L 27.953125 -45.421875 L 27.953125 -36.640625 L 55.625 -36.640625 L 55.625 -21.5625 L 27.953125 -21.5625 L 27.953125 0 L 6.203125 0 Z M 6.203125 -60.5 "/></g></g></g><g fill="#fcfcfc" fill-opacity="1"><g transform="translate(64.745431, 70.649198)"><g><path d="M 6.203125 -60.5 L 27.953125 -60.5 L 27.953125 0 L 6.203125 0 Z M 6.203125 -60.5 "/></g></g></g><g fill="#fcfcfc" fill-opacity="1"><g transform="translate(98.903574, 70.649198)"><g><path d="M 6.203125 -60.5 L 62.109375 -60.5 L 62.109375 -45.421875 L 27.953125 -45.421875 L 27.953125 -36.640625 L 55.625 -36.640625 L 55.625 -21.5625 L 27.953125 -21.5625 L 27.953125 0 L 6.203125 0 Z M 6.203125 -60.5 "/></g></g></g><g fill="#fcfcfc" fill-opacity="1"><g transform="translate(156.750396, 70.649198)"><g><path d="M 25.546875 -60.5 L 55.984375 -60.5 L 81 0 L 57.671875 0 L 54.203125 -9.5 L 26.703125 -9.5 L 23.15625 0 L 0.53125 0 Z M 48.703125 -24.578125 L 40.640625 -47.546875 L 32.296875 -24.578125 Z M 48.703125 -24.578125 "/></g></g></g><g fill="#51ce69" fill-opacity="1"><g transform="translate(235.636594, 70.649198)"><g><path d="M 42.765625 1.234375 C 35.015625 1.234375 28.195312 -0.0625 22.3125 -2.65625 C 16.425781 -5.257812 11.882812 -8.941406 8.6875 -13.703125 C 5.5 -18.460938 3.90625 -23.976562 3.90625 -30.25 C 3.90625 -36.519531 5.5 -42.035156 8.6875 -46.796875 C 11.882812 -51.554688 16.425781 -55.238281 22.3125 -57.84375 C 28.195312 -60.445312 35.015625 -61.75 42.765625 -61.75 C 51.691406 -61.75 59.304688 -60.003906 65.609375 -56.515625 C 71.910156 -53.023438 76.210938 -47.820312 78.515625 -40.90625 L 56.6875 -37 C 55.976562 -39.363281 54.320312 -41.328125 51.71875 -42.890625 C 49.113281 -44.460938 46.007812 -45.25 42.40625 -45.25 C 37.019531 -45.25 32.953125 -43.882812 30.203125 -41.15625 C 27.453125 -38.4375 26.078125 -34.800781 26.078125 -30.25 C 26.078125 -25.757812 27.453125 -22.140625 30.203125 -19.390625 C 32.953125 -16.640625 37.019531 -15.265625 42.40625 -15.265625 C 46.007812 -15.265625 49.113281 -16.046875 51.71875 -17.609375 C 54.320312 -19.179688 55.976562 -21.148438 56.6875 -23.515625 L 78.515625 -19.609375 C 76.210938 -12.691406 71.910156 -7.488281 65.609375 -4 C 59.304688 -0.507812 51.691406 1.234375 42.765625 1.234375 Z M 42.765625 1.234375 "/></g></g></g><g fill="#51ce69" fill-opacity="1"><g transform="translate(316.107856, 70.649198)"><g><path d="M 43.734375 1.234375 C 35.691406 1.234375 28.679688 -0.0195312 22.703125 -2.53125 C 16.734375 -5.039062 12.109375 -8.660156 8.828125 -13.390625 C 5.546875 -18.128906 3.90625 -23.75 3.90625 -30.25 C 3.90625 -36.757812 5.546875 -42.378906 8.828125 -47.109375 C 12.109375 -51.835938 16.734375 -55.457031 22.703125 -57.96875 C 28.679688 -60.488281 35.691406 -61.75 43.734375 -61.75 C 51.722656 -61.75 58.703125 -60.488281 64.671875 -57.96875 C 70.648438 -55.457031 75.265625 -51.835938 78.515625 -47.109375 C 81.765625 -42.378906 83.390625 -36.757812 83.390625 -30.25 C 83.390625 -23.75 81.765625 -18.128906 78.515625 -13.390625 C 75.265625 -8.660156 70.648438 -5.039062 64.671875 -2.53125 C 58.703125 -0.0195312 51.722656 1.234375 43.734375 1.234375 Z M 26.078125 -30.25 C 26.078125 -25.457031 27.660156 -21.757812 30.828125 -19.15625 C 33.992188 -16.5625 38.296875 -15.265625 43.734375 -15.265625 C 49.117188 -15.265625 53.378906 -16.578125 56.515625 -19.203125 C 59.648438 -21.835938 61.21875 -25.519531 61.21875 -30.25 C 61.21875 -34.976562 59.648438 -38.660156 56.515625 -41.296875 C 53.378906 -43.929688 49.117188 -45.25 43.734375 -45.25 C 38.296875 -45.25 33.992188 -43.945312 30.828125 -41.34375 C 27.660156 -38.738281 26.078125 -35.039062 26.078125 -30.25 Z M 26.078125 -30.25 "/></g></g></g><g fill="#51ce69" fill-opacity="1"><g transform="translate(403.410753, 70.649198)"><g><path d="M 6.203125 -60.5 L 30.96875 -60.5 L 58.46875 -29.015625 L 58.46875 -60.5 L 79.765625 -60.5 L 79.765625 0 L 56.0625 0 L 27.5 -32.65625 L 27.5 0 L 6.203125 0 Z M 6.203125 -60.5 "/></g></g></g><g fill="#51ce69" fill-opacity="1"><g transform="translate(489.382797, 70.649198)"><g><path d="M 42.5 1.234375 C 34.457031 1.117188 27.535156 -0.207031 21.734375 -2.75 C 15.941406 -5.289062 11.519531 -8.894531 8.46875 -13.5625 C 5.425781 -18.238281 3.90625 -23.800781 3.90625 -30.25 C 3.90625 -36.8125 5.484375 -42.457031 8.640625 -47.1875 C 11.804688 -51.925781 16.375 -55.535156 22.34375 -58.015625 C 28.320312 -60.503906 35.453125 -61.75 43.734375 -61.75 C 51.953125 -61.75 59.035156 -60.488281 64.984375 -57.96875 C 70.929688 -55.457031 75.484375 -51.835938 78.640625 -47.109375 C 81.804688 -42.378906 83.390625 -36.757812 83.390625 -30.25 C 83.390625 -25.988281 82.707031 -22.097656 81.34375 -18.578125 C 79.988281 -15.066406 78.1875 -12.273438 75.9375 -10.203125 L 51.28125 -3.28125 L 67.25 0 L 78.6875 14.1875 L 51.90625 14.1875 Z M 26.078125 -30.25 C 26.078125 -25.40625 27.597656 -21.695312 30.640625 -19.125 C 33.691406 -16.550781 38.054688 -15.265625 43.734375 -15.265625 C 49.296875 -15.265625 53.597656 -16.5625 56.640625 -19.15625 C 59.691406 -21.757812 61.21875 -25.457031 61.21875 -30.25 C 61.21875 -35.039062 59.691406 -38.738281 56.640625 -41.34375 C 53.597656 -43.945312 49.296875 -45.25 43.734375 -45.25 C 38.054688 -45.25 33.691406 -43.960938 30.640625 -41.390625 C 27.597656 -38.816406 26.078125 -35.101562 26.078125 -30.25 Z M 26.078125 -30.25 "/></g></g></g><g fill="#51ce69" fill-opacity="1"><g transform="translate(576.685694, 70.649198)"><g><path d="M 41.4375 1.234375 C 34.15625 1.234375 27.820312 0.140625 22.4375 -2.046875 C 17.0625 -4.234375 12.921875 -7.378906 10.015625 -11.484375 C 7.117188 -15.597656 5.671875 -20.40625 5.671875 -25.90625 L 5.671875 -60.5 L 27.421875 -60.5 L 27.421875 -26 C 27.421875 -22.6875 28.601562 -20.066406 30.96875 -18.140625 C 33.332031 -16.222656 36.820312 -15.265625 41.4375 -15.265625 C 46.050781 -15.265625 49.539062 -16.222656 51.90625 -18.140625 C 54.269531 -20.066406 55.453125 -22.6875 55.453125 -26 L 55.453125 -60.5 L 77.1875 -60.5 L 77.1875 -25.90625 C 77.1875 -20.40625 75.75 -15.597656 72.875 -11.484375 C 70.007812 -7.378906 65.882812 -4.234375 60.5 -2.046875 C 55.125 0.140625 48.769531 1.234375 41.4375 1.234375 Z M 41.4375 1.234375 "/></g></g></g><g fill="#51ce69" fill-opacity="1"><g transform="translate(659.552485, 70.649198)"><g><path d="M 6.203125 -60.5 L 62.640625 -60.5 L 62.640625 -45.421875 L 27.953125 -45.421875 L 27.953125 -38.0625 L 56.515625 -38.0625 L 56.515625 -22.984375 L 27.953125 -22.984375 L 27.953125 -15.078125 L 62.640625 -15.078125 L 62.640625 0 L 6.203125 0 Z M 6.203125 -60.5 "/></g></g></g><g fill="#51ce69" fill-opacity="1"><g transform="translate(727.513933, 70.649198)"><g><path d="M 35.578125 1.234375 C 25.460938 1.234375 17.578125 -0.125 11.921875 -2.84375 C 6.273438 -5.5625 2.597656 -9.375 0.890625 -14.28125 L 20.046875 -19.15625 C 21.109375 -17.144531 23.148438 -15.5625 26.171875 -14.40625 C 29.191406 -13.257812 32.679688 -12.6875 36.640625 -12.6875 C 40.546875 -12.6875 43.335938 -13.007812 45.015625 -13.65625 C 46.703125 -14.3125 47.546875 -15.257812 47.546875 -16.5 C 47.546875 -17.800781 46.75 -18.820312 45.15625 -19.5625 C 43.5625 -20.300781 40.8125 -20.9375 36.90625 -21.46875 L 28.125 -22.625 C 20.257812 -23.625 14.253906 -25.660156 10.109375 -28.734375 C 5.972656 -31.816406 3.90625 -36.253906 3.90625 -42.046875 C 3.90625 -46.128906 5.234375 -49.648438 7.890625 -52.609375 C 10.554688 -55.566406 14.3125 -57.828125 19.15625 -59.390625 C 24.007812 -60.960938 29.691406 -61.75 36.203125 -61.75 C 41.640625 -61.75 46.53125 -61.15625 50.875 -59.96875 C 55.226562 -58.789062 58.804688 -57.207031 61.609375 -55.21875 C 64.421875 -53.238281 66.421875 -51.066406 67.609375 -48.703125 L 48 -42.671875 C 46.695312 -44.390625 45.082031 -45.675781 43.15625 -46.53125 C 41.238281 -47.382812 38.679688 -47.8125 35.484375 -47.8125 C 31.992188 -47.8125 29.4375 -47.425781 27.8125 -46.65625 C 26.1875 -45.894531 25.375 -44.894531 25.375 -43.65625 C 25.375 -42.289062 26.007812 -41.296875 27.28125 -40.671875 C 28.550781 -40.054688 30.785156 -39.539062 33.984375 -39.125 L 46.75 -37.4375 C 53.675781 -36.550781 59.164062 -34.613281 63.21875 -31.625 C 67.269531 -28.632812 69.296875 -24.476562 69.296875 -19.15625 C 69.296875 -12.65625 66.46875 -7.628906 60.8125 -4.078125 C 55.164062 -0.535156 46.753906 1.234375 35.578125 1.234375 Z M 35.578125 1.234375 "/></g></g></g><g fill="#51ce69" fill-opacity="1"><g transform="translate(797.515897, 70.649198)"><g><path d="M 24.578125 -44.53125 L 2.046875 -44.53125 L 2.046875 -60.5 L 68.84375 -60.5 L 68.84375 -44.53125 L 46.3125 -44.53125 L 46.3125 0 L 24.578125 0 Z M 24.578125 -44.53125 "/></g></g></g></g></g><g transform="matrix(1, 0, 0, 1, 55, 62)"><g clip-path="url(#0961a0bb28)"><g fill="#fcfcfc" fill-opacity="1"><g transform="translate(0.421657, 70.649198)"><g><path d="M 6.203125 -60.5 L 62.109375 -60.5 L 62.109375 -45.421875 L 27.953125 -45.421875 L 27.953125 -36.640625 L 55.625 -36.640625 L 55.625 -21.5625 L 27.953125 -21.5625 L 27.953125 0 L 6.203125 0 Z M 6.203125 -60.5 "/></g></g></g><g fill="#fcfcfc" fill-opacity="1"><g transform="translate(64.745431, 70.649198)"><g><path d="M 6.203125 -60.5 L 27.953125 -60.5 L 27.953125 0 L 6.203125 0 Z M 6.203125 -60.5 "/></g></g></g><g fill="#fcfcfc" fill-opacity="1"><g transform="translate(98.903574, 70.649198)"><g><path d="M 6.203125 -60.5 L 62.109375 -60.5 L 62.109375 -45.421875 L 27.953125 -45.421875 L 27.953125 -36.640625 L 55.625 -36.640625 L 55.625 -21.5625 L 27.953125 -21.5625 L 27.953125 0 L 6.203125 0 Z M 6.203125 -60.5 "/></g></g></g><g fill="#fcfcfc" fill-opacity="1"><g transform="translate(156.750396, 70.649198)"><g><path d="M 25.546875 -60.5 L 55.984375 -60.5 L 81 0 L 57.671875 0 L 54.203125 -9.5 L 26.703125 -9.5 L 23.15625 0 L 0.53125 0 Z M 48.703125 -24.578125 L 40.640625 -47.546875 L 32.296875 -24.578125 Z M 48.703125 -24.578125 "/></g></g></g><g fill="#51ce69" fill-opacity="1"><g transform="translate(235.636594, 70.649198)"><g><path d="M 42.765625 1.234375 C 35.015625 1.234375 28.195312 -0.0625 22.3125 -2.65625 C 16.425781 -5.257812 11.882812 -8.941406 8.6875 -13.703125 C 5.5 -18.460938 3.90625 -23.976562 3.90625 -30.25 C 3.90625 -36.519531 5.5 -42.035156 8.6875 -46.796875 C 11.882812 -51.554688 16.425781 -55.238281 22.3125 -57.84375 C 28.195312 -60.445312 35.015625 -61.75 42.765625 -61.75 C 51.691406 -61.75 59.304688 -60.003906 65.609375 -56.515625 C 71.910156 -53.023438 76.210938 -47.820312 78.515625 -40.90625 L 56.6875 -37 C 55.976562 -39.363281 54.320312 -41.328125 51.71875 -42.890625 C 49.113281 -44.460938 46.007812 -45.25 42.40625 -45.25 C 37.019531 -45.25 32.953125 -43.882812 30.203125 -41.15625 C 27.453125 -38.4375 26.078125 -34.800781 26.078125 -30.25 C 26.078125 -25.757812 27.453125 -22.140625 30.203125 -19.390625 C 32.953125 -16.640625 37.019531 -15.265625 42.40625 -15.265625 C 46.007812 -15.265625 49.113281 -16.046875 51.71875 -17.609375 C 54.320312 -19.179688 55.976562 -21.148438 56.6875 -23.515625 L 78.515625 -19.609375 C 76.210938 -12.691406 71.910156 -7.488281 65.609375 -4 C 59.304688 -0.507812 51.691406 1.234375 42.765625 1.234375 Z M 42.765625 1.234375 "/></g></g></g><g fill="#51ce69" fill-opacity="1"><g transform="translate(316.107856, 70.649198)"><g><path d="M 43.734375 1.234375 C 35.691406 1.234375 28.679688 -0.0195312 22.703125 -2.53125 C 16.734375 -5.039062 12.109375 -8.660156 8.828125 -13.390625 C 5.546875 -18.128906 3.90625 -23.75 3.90625 -30.25 C 3.90625 -36.757812 5.546875 -42.378906 8.828125 -47.109375 C 12.109375 -51.835938 16.734375 -55.457031 22.703125 -57.96875 C 28.679688 -60.488281 35.691406 -61.75 43.734375 -61.75 C 51.722656 -61.75 58.703125 -60.488281 64.671875 -57.96875 C 70.648438 -55.457031 75.265625 -51.835938 78.515625 -47.109375 C 81.765625 -42.378906 83.390625 -36.757812 83.390625 -30.25 C 83.390625 -23.75 81.765625 -18.128906 78.515625 -13.390625 C 75.265625 -8.660156 70.648438 -5.039062 64.671875 -2.53125 C 58.703125 -0.0195312 51.722656 1.234375 43.734375 1.234375 Z M 26.078125 -30.25 C 26.078125 -25.457031 27.660156 -21.757812 30.828125 -19.15625 C 33.992188 -16.5625 38.296875 -15.265625 43.734375 -15.265625 C 49.117188 -15.265625 53.378906 -16.578125 56.515625 -19.203125 C 59.648438 -21.835938 61.21875 -25.519531 61.21875 -30.25 C 61.21875 -34.976562 59.648438 -38.660156 56.515625 -41.296875 C 53.378906 -43.929688 49.117188 -45.25 43.734375 -45.25 C 38.296875 -45.25 33.992188 -43.945312 30.828125 -41.34375 C 27.660156 -38.738281 26.078125 -35.039062 26.078125 -30.25 Z M 26.078125 -30.25 "/></g></g></g><g fill="#51ce69" fill-opacity="1"><g transform="translate(403.410753, 70.649198)"><g><path d="M 6.203125 -60.5 L 30.96875 -60.5 L 58.46875 -29.015625 L 58.46875 -60.5 L 79.765625 -60.5 L 79.765625 0 L 56.0625 0 L 27.5 -32.65625 L 27.5 0 L 6.203125 0 Z M 6.203125 -60.5 "/></g></g></g><g fill="#51ce69" fill-opacity="1"><g transform="translate(489.382797, 70.649198)"><g><path d="M 42.5 1.234375 C 34.457031 1.117188 27.535156 -0.207031 21.734375 -2.75 C 15.941406 -5.289062 11.519531 -8.894531 8.46875 -13.5625 C 5.425781 -18.238281 3.90625 -23.800781 3.90625 -30.25 C 3.90625 -36.8125 5.484375 -42.457031 8.640625 -47.1875 C 11.804688 -51.925781 16.375 -55.535156 22.34375 -58.015625 C 28.320312 -60.503906 35.453125 -61.75 43.734375 -61.75 C 51.953125 -61.75 59.035156 -60.488281 64.984375 -57.96875 C 70.929688 -55.457031 75.484375 -51.835938 78.640625 -47.109375 C 81.804688 -42.378906 83.390625 -36.757812 83.390625 -30.25 C 83.390625 -25.988281 82.707031 -22.097656 81.34375 -18.578125 C 79.988281 -15.066406 78.1875 -12.273438 75.9375 -10.203125 L 51.28125 -3.28125 L 67.25 0 L 78.6875 14.1875 L 51.90625 14.1875 Z M 26.078125 -30.25 C 26.078125 -25.40625 27.597656 -21.695312 30.640625 -19.125 C 33.691406 -16.550781 38.054688 -15.265625 43.734375 -15.265625 C 49.296875 -15.265625 53.597656 -16.5625 56.640625 -19.15625 C 59.691406 -21.757812 61.21875 -25.457031 61.21875 -30.25 C 61.21875 -35.039062 59.691406 -38.738281 56.640625 -41.34375 C 53.597656 -43.945312 49.296875 -45.25 43.734375 -45.25 C 38.054688 -45.25 33.691406 -43.960938 30.640625 -41.390625 C 27.597656 -38.816406 26.078125 -35.101562 26.078125 -30.25 Z M 26.078125 -30.25 "/></g></g></g><g fill="#51ce69" fill-opacity="1"><g transform="translate(576.685694, 70.649198)"><g><path d="M 41.4375 1.234375 C 34.15625 1.234375 27.820312 0.140625 22.4375 -2.046875 C 17.0625 -4.234375 12.921875 -7.378906 10.015625 -11.484375 C 7.117188 -15.597656 5.671875 -20.40625 5.671875 -25.90625 L 5.671875 -60.5 L 27.421875 -60.5 L 27.421875 -26 C 27.421875 -22.6875 28.601562 -20.066406 30.96875 -18.140625 C 33.332031 -16.222656 36.820312 -15.265625 41.4375 -15.265625 C 46.050781 -15.265625 49.539062 -16.222656 51.90625 -18.140625 C 54.269531 -20.066406 55.453125 -22.6875 55.453125 -26 L 55.453125 -60.5 L 77.1875 -60.5 L 77.1875 -25.90625 C 77.1875 -20.40625 75.75 -15.597656 72.875 -11.484375 C 70.007812 -7.378906 65.882812 -4.234375 60.5 -2.046875 C 55.125 0.140625 48.769531 1.234375 41.4375 1.234375 Z M 41.4375 1.234375 "/></g></g></g><g fill="#51ce69" fill-opacity="1"><g transform="translate(659.552485, 70.649198)"><g><path d="M 6.203125 -60.5 L 62.640625 -60.5 L 62.640625 -45.421875 L 27.953125 -45.421875 L 27.953125 -38.0625 L 56.515625 -38.0625 L 56.515625 -22.984375 L 27.953125 -22.984375 L 27.953125 -15.078125 L 62.640625 -15.078125 L 62.640625 0 L 6.203125 0 Z M 6.203125 -60.5 "/></g></g></g><g fill="#51ce69" fill-opacity="1"><g transform="translate(727.513933, 70.649198)"><g><path d="M 35.578125 1.234375 C 25.460938 1.234375 17.578125 -0.125 11.921875 -2.84375 C 6.273438 -5.5625 2.597656 -9.375 0.890625 -14.28125 L 20.046875 -19.15625 C 21.109375 -17.144531 23.148438 -15.5625 26.171875 -14.40625 C 29.191406 -13.257812 32.679688 -12.6875 36.640625 -12.6875 C 40.546875 -12.6875 43.335938 -13.007812 45.015625 -13.65625 C 46.703125 -14.3125 47.546875 -15.257812 47.546875 -16.5 C 47.546875 -17.800781 46.75 -18.820312 45.15625 -19.5625 C 43.5625 -20.300781 40.8125 -20.9375 36.90625 -21.46875 L 28.125 -22.625 C 20.257812 -23.625 14.253906 -25.660156 10.109375 -28.734375 C 5.972656 -31.816406 3.90625 -36.253906 3.90625 -42.046875 C 3.90625 -46.128906 5.234375 -49.648438 7.890625 -52.609375 C 10.554688 -55.566406 14.3125 -57.828125 19.15625 -59.390625 C 24.007812 -60.960938 29.691406 -61.75 36.203125 -61.75 C 41.640625 -61.75 46.53125 -61.15625 50.875 -59.96875 C 55.226562 -58.789062 58.804688 -57.207031 61.609375 -55.21875 C 64.421875 -53.238281 66.421875 -51.066406 67.609375 -48.703125 L 48 -42.671875 C 46.695312 -44.390625 45.082031 -45.675781 43.15625 -46.53125 C 41.238281 -47.382812 38.679688 -47.8125 35.484375 -47.8125 C 31.992188 -47.8125 29.4375 -47.425781 27.8125 -46.65625 C 26.1875 -45.894531 25.375 -44.894531 25.375 -43.65625 C 25.375 -42.289062 26.007812 -41.296875 27.28125 -40.671875 C 28.550781 -40.054688 30.785156 -39.539062 33.984375 -39.125 L 46.75 -37.4375 C 53.675781 -36.550781 59.164062 -34.613281 63.21875 -31.625 C 67.269531 -28.632812 69.296875 -24.476562 69.296875 -19.15625 C 69.296875 -12.65625 66.46875 -7.628906 60.8125 -4.078125 C 55.164062 -0.535156 46.753906 1.234375 35.578125 1.234375 Z M 35.578125 1.234375 "/></g></g></g><g fill="#51ce69" fill-opacity="1"><g transform="translate(797.515897, 70.649198)"><g><path d="M 24.578125 -44.53125 L 2.046875 -44.53125 L 2.046875 -60.5 L 68.84375 -60.5 L 68.84375 -44.53125 L 46.3125 -44.53125 L 46.3125 0 L 24.578125 0 Z M 24.578125 -44.53125 "/></g></g></g></g></g></svg>